<?xml version="1.0" standalone="no"?>
<!DOCTYPE svg PUBLIC "-//W3C//DTD SVG 20010904//EN"
 "http://www.w3.org/TR/2001/REC-SVG-20010904/DTD/svg10.dtd">
<svg version="1.0" xmlns="http://www.w3.org/2000/svg"
 width="260.000000pt" height="260.000000pt" viewBox="0 0 260.000000 260.000000"
 preserveAspectRatio="xMidYMid meet">
<metadata>
Created by potrace 1.14, written by Peter Selinger 2001-2017
</metadata>
<g transform="translate(0.000000,260.000000) scale(0.100000,-0.100000)"
fill="#000000" stroke="none">
<path d="M1242 2583 c-14 -25 12 -82 67 -147 31 -36 39 -52 31 -60 -9 -8 -21
0 -46 28 -18 21 -31 42 -29 46 6 10 -26 37 -50 42 -14 2 -20 12 -21 28 0 36
-12 50 -39 50 -25 0 -52 -34 -46 -59 2 -10 -2 -10 -14 3 -42 42 -78 5 -79 -81
-1 -29 -3 -53 -6 -53 -3 0 -23 27 -45 60 -42 63 -67 74 -86 38 -16 -29 -5
-131 20 -195 21 -54 19 -63 -11 -63 -21 0 -75 -26 -94 -44 -6 -7 -19 -26 -27
-43 -15 -28 -15 -33 3 -68 l19 -38 -39 -47 c-22 -26 -40 -51 -40 -55 0 -4 -8
-19 -18 -33 -10 -15 -19 -43 -20 -62 -2 -19 -6 -37 -10 -40 -4 -3 -23 -36 -41
-75 -19 -38 -38 -72 -42 -75 -14 -10 -32 -64 -30 -94 2 -37 19 -68 33 -60 16
10 3 -49 -29 -126 -33 -79 -31 -76 -45 -62 -15 15 -82 16 -109 2 -10 -6 -19
-17 -19 -25 0 -19 27 -99 53 -155 19 -41 79 -126 100 -141 5 -4 10 -44 12 -90
3 -91 13 -149 26 -149 4 0 1 -12 -6 -27 -13 -25 -12 -29 5 -45 11 -11 20 -31
20 -46 0 -16 4 -32 9 -38 5 -5 11 -25 14 -44 13 -81 41 -150 65 -157 17 -4
102 -133 102 -154 0 -13 56 -86 98 -126 35 -33 147 -93 174 -93 23 0 52 48 39
64 -6 7 -9 36 -8 66 1 35 -2 55 -10 57 -7 3 -13 11 -13 18 0 11 5 11 28 -1 28
-14 28 -15 24 -89 -3 -62 -1 -76 12 -81 9 -3 16 -15 16 -25 0 -15 7 -19 35
-19 19 0 35 5 35 10 0 6 9 20 20 32 11 12 20 28 20 35 0 10 5 11 18 5 35 -19
85 0 80 30 -2 17 -9 22 -24 20 -18 -2 -22 4 -27 35 -4 20 -5 38 -3 40 7 7 36
-10 36 -21 0 -16 66 -66 87 -66 29 0 44 20 32 42 -5 10 -15 18 -22 18 -8 0
-14 16 -16 42 -1 23 -7 45 -12 49 -9 5 -5 76 4 85 2 2 16 -32 33 -74 24 -61
36 -79 57 -86 21 -8 31 -6 43 6 10 9 13 21 9 29 -5 7 -9 24 -10 38 -14 170
-27 207 -63 185 -9 -6 -18 -20 -20 -32 -2 -12 -12 -24 -23 -27 -11 -4 -17 -11
-14 -16 4 -5 1 -9 -4 -9 -6 0 -11 7 -11 15 0 24 -29 29 -50 10 -12 -11 -21
-37 -26 -71 -3 -30 -10 -51 -16 -48 -5 3 -7 9 -4 12 4 3 -1 16 -9 29 -9 13
-13 23 -9 23 4 0 1 7 -6 15 -16 20 -44 19 -61 -1 -10 -12 -10 -22 -1 -47 8
-22 9 -34 1 -44 -16 -19 -26 -16 -32 8 -4 17 -12 20 -30 17 -22 -4 -24 -2 -20
24 5 36 -11 58 -44 58 -28 0 -32 -9 -36 -72 -1 -32 -5 -43 -13 -37 -6 5 -18 3
-30 -6 -27 -20 -29 -19 -28 17 1 27 5 33 21 31 17 -2 25 10 43 58 13 37 19 71
15 86 -3 14 -9 23 -12 20 -11 -12 -42 13 -45 35 -2 17 -10 23 -28 23 -20 0
-26 -6 -28 -27 -2 -15 4 -40 12 -57 22 -41 20 -53 -6 -49 -30 4 -49 -35 -43
-90 4 -38 2 -42 -10 -32 -8 7 -24 10 -35 7 -11 -3 -20 -4 -20 -2 0 2 5 27 11
55 8 39 8 54 -1 65 -11 13 -9 15 11 13 20 -3 24 3 34 55 12 57 12 57 -13 64
-19 4 -30 1 -43 -15 -9 -12 -20 -22 -24 -22 -4 0 -2 6 4 14 6 7 9 21 5 29 -6
17 -42 33 -51 23 -4 -3 -12 3 -20 14 -8 11 -22 20 -31 20 -15 0 -15 2 -2 10 8
6 31 8 50 5 80 -12 427 -19 506 -11 88 10 216 61 254 101 21 22 23 29 11 46
-18 30 -7 35 12 6 9 -13 23 -31 31 -40 10 -10 12 -18 6 -22 -11 -7 -13 -48 -4
-82 3 -12 18 -28 33 -34 21 -9 26 -18 25 -46 -1 -19 -5 -37 -10 -41 -5 -4 -8
-6 -7 -4 1 2 -5 11 -13 20 -8 9 -23 28 -33 41 -37 51 -88 -13 -62 -80 13 -35
65 -47 95 -22 12 10 18 14 14 9 -4 -4 -3 -19 2 -31 7 -19 5 -25 -10 -30 -11
-3 -28 -2 -38 4 -10 5 -24 6 -31 2 -20 -13 -25 -78 -8 -104 18 -28 69 -34 92
-10 16 16 16 18 -4 34 -26 21 -27 29 -2 29 10 0 21 7 25 15 4 11 11 13 30 5
18 -6 28 -5 36 5 13 15 5 55 -11 55 -14 0 7 36 24 43 9 3 14 -1 13 -11 -3 -80
28 -169 103 -287 35 -56 39 -69 32 -127 -1 -4 -8 -14 -17 -22 -14 -15 -9 -16
58 -16 l73 0 0 44 c-1 38 -8 53 -45 96 -25 29 -49 59 -54 68 -5 10 -12 19 -16
22 -10 7 -37 59 -54 103 -11 26 -14 67 -13 132 3 99 8 115 30 96 22 -17 42 -4
44 29 1 17 10 46 19 65 9 19 14 42 10 50 -9 23 -44 18 -62 -10 -9 -14 -20 -25
-25 -25 -15 0 -10 22 9 39 44 42 75 82 77 98 1 10 6 27 12 38 6 11 13 29 14
40 5 25 12 33 74 75 113 77 166 147 167 219 1 58 -34 110 -74 111 -12 0 -16 8
-16 28 1 15 -4 37 -10 49 -17 31 -4 108 34 204 19 48 34 94 34 103 0 20 7 20
25 2 10 -10 11 -23 4 -52 -5 -21 -11 -52 -13 -69 -20 -149 -22 -171 -17 -205
0 -5 12 -9 26 -8 20 2 28 10 35 38 13 48 42 250 39 275 -2 26 -1 61 5 163 3
60 0 95 -11 125 -8 23 -16 47 -17 52 -2 6 -12 30 -23 55 -20 44 -28 72 -39
135 -9 53 -15 65 -33 65 -37 0 -45 -38 -27 -120 l8 -35 -34 33 c-24 22 -41 54
-56 102 -42 130 -113 203 -149 154 -7 -10 -14 -16 -16 -13 -2 2 -18 25 -36 51
-35 52 -86 87 -103 70 -7 -7 -29 9 -67 47 -49 51 -60 58 -87 54 -21 -3 -35
-13 -42 -29 -12 -24 -10 -27 32 -49 24 -13 26 -29 3 -33 -14 -3 -97 50 -157
100 -8 7 -47 14 -86 16 -63 4 -73 2 -82 -15z m135 -73 c22 -13 31 -25 27 -35
-10 -25 -15 -22 -63 38 -18 23 -4 22 36 -3z m-228 -60 c15 -21 19 -35 13 -46
-7 -13 -13 -7 -25 30 -9 25 -15 46 -13 46 1 0 12 -14 25 -30z m371 -59 c117
-62 125 -69 158 -126 18 -32 42 -66 53 -76 27 -23 20 -42 -14 -43 -22 -1 -27
3 -27 21 0 13 -7 26 -15 29 -8 3 -17 14 -20 24 -6 18 -27 29 -80 39 -22 4 -31
13 -33 29 -2 13 -10 26 -18 29 -8 3 -11 9 -8 14 3 5 -8 23 -25 40 -17 17 -31
32 -31 35 0 9 28 3 60 -15z m250 -123 c0 -10 4 -18 8 -18 12 0 42 -67 42 -93
-1 -20 -3 -19 -17 8 -10 17 -16 38 -14 48 1 9 -3 17 -8 17 -10 0 -61 101 -61
118 0 3 11 -9 25 -28 14 -19 25 -42 25 -52z m-747 17 c20 -11 37 -24 37 -28 0
-5 -6 -5 -13 1 -7 6 -22 9 -33 6 -14 -4 -24 3 -37 25 -20 35 -22 48 -4 29 8
-7 30 -22 50 -33z m912 -25 c35 -70 37 -84 8 -54 -9 8 -22 13 -30 10 -25 -10
-36 5 -18 24 13 15 15 25 7 54 -6 20 -9 36 -6 36 2 0 20 -31 39 -70z m-685 20
c0 -5 -2 -10 -4 -10 -3 0 -8 5 -11 10 -3 6 -1 10 4 10 6 0 11 -4 11 -10z m89
-44 c-12 -26 -29 -35 -29 -16 0 10 33 48 38 45 1 -1 -3 -14 -9 -29z m123 -61
c2 3 11 -6 18 -20 7 -13 20 -26 29 -29 24 -7 -70 2 -96 10 -18 5 -22 12 -19
30 8 42 17 47 40 25 12 -12 25 -19 28 -16z m-303 -48 c1 -5 -7 -7 -16 -5 -10
2 -17 10 -15 16 1 7 -2 12 -7 12 -5 0 -12 7 -15 16 -4 11 3 8 23 -8 17 -13 30
-27 30 -31z m-63 -62 c10 -8 29 -15 41 -15 27 0 73 20 73 32 0 4 22 8 50 8 40
0 51 -4 60 -21 9 -15 15 -18 24 -9 10 7 22 7 41 0 39 -15 164 -24 217 -16 49
7 128 53 128 73 0 7 5 13 12 13 6 0 8 -3 5 -6 -9 -10 33 -44 54 -44 22 0 15
-34 -17 -73 -43 -52 -45 -192 -2 -303 24 -64 25 -67 27 -89 2 -22 61 -85 80
-85 24 0 62 -46 55 -65 -5 -13 -9 -13 -21 -3 -24 20 -40 18 -53 -7 -12 -23
-14 -22 -99 65 -117 120 -166 144 -328 159 -56 5 -89 13 -102 25 -14 13 -26
16 -43 10 -13 -4 -26 -7 -29 -6 -70 17 -87 4 -84 -70 1 -47 4 -53 25 -56 12
-2 26 1 30 8 4 6 20 14 36 16 34 6 31 6 157 1 86 -3 100 -6 118 -26 12 -13 49
-35 83 -51 81 -36 212 -171 196 -201 -6 -10 -8 -19 -5 -19 3 0 -1 -13 -10 -30
-9 -16 -13 -30 -10 -30 3 0 1 -9 -5 -21 -6 -11 -13 -29 -15 -39 -2 -10 -12
-44 -21 -75 -16 -49 -16 -58 -4 -66 25 -15 44 -5 67 36 30 55 89 113 132 131
50 21 149 24 161 4 27 -42 -9 -110 -89 -170 -64 -47 -74 -50 -40 -12 39 42 49
58 54 81 8 42 -52 50 -128 18 -49 -21 -48 -50 3 -57 l34 -5 -57 -50 c-55 -48
-69 -76 -46 -91 7 -4 0 -17 -17 -35 l-28 -30 27 -25 28 -25 -40 -48 c-21 -25
-50 -52 -63 -59 -23 -13 -47 -69 -51 -119 0 -12 -5 -19 -10 -16 -4 2 -6 10 -4
16 2 7 -7 33 -20 59 -13 26 -23 50 -22 55 5 21 -75 159 -96 167 -16 6 -45 -18
-45 -38 0 -6 5 -17 12 -24 6 -6 9 -14 6 -18 -4 -3 -16 4 -28 16 -14 14 -29 20
-43 16 -17 -4 -26 2 -39 24 -20 35 -54 40 -63 9 -14 -43 35 -93 92 -94 32 0
44 -42 15 -51 -9 -3 -26 -10 -37 -15 -11 -5 -54 -17 -95 -28 -65 -18 -99 -20
-260 -16 -102 2 -203 6 -225 10 -22 4 -54 8 -72 9 -30 2 -60 16 -35 16 6 0 20
17 31 38 11 20 20 31 21 24 0 -7 10 -16 22 -21 18 -6 26 -3 41 15 19 25 46 31
63 14 5 -5 25 -10 43 -12 28 -2 36 -8 48 -35 19 -48 53 -46 53 3 l0 36 26 -32
c29 -34 65 -38 70 -7 1 9 -2 17 -6 17 -9 0 -25 42 -19 50 10 12 52 -4 78 -31
16 -16 36 -29 45 -29 23 0 32 48 13 63 -9 7 -17 29 -19 50 -3 45 -21 65 -43
47 -8 -7 -15 -18 -15 -25 0 -10 -8 -11 -35 -4 -19 6 -74 11 -122 12 -83 2 -89
1 -98 -20 -13 -30 -17 -29 -60 8 -50 44 -52 38 123 409 58 124 92 215 92 245
0 28 -24 44 -47 29 -13 -8 -46 -84 -37 -84 3 0 -43 -112 -79 -190 -117 -254
-151 -347 -140 -377 3 -8 -4 -21 -16 -30 -12 -8 -33 -40 -46 -70 -16 -34 -29
-52 -36 -47 -6 3 -7 9 -2 13 15 10 35 69 28 81 -4 7 -20 10 -35 8 -22 -3 -26
-1 -22 14 2 10 8 18 13 18 17 0 9 35 -11 53 -11 9 -21 26 -21 37 -1 11 -2 26
-3 33 -1 6 2 17 6 23 9 13 1 44 -12 44 -4 0 -10 12 -13 28 -3 15 -9 39 -12 54
-6 20 2 39 32 85 43 65 83 152 83 181 0 11 7 25 15 32 8 7 12 16 9 21 -3 5 1
9 8 9 10 0 10 2 -1 9 -10 7 -12 23 -8 67 4 33 6 60 7 60 0 1 42 2 93 3 115 2
136 8 164 40 24 27 27 67 6 75 -19 8 -43 -4 -43 -21 0 -10 -6 -13 -16 -9 -9 3
-44 6 -80 6 l-63 0 1 38 c0 20 6 44 13 52 7 8 15 27 19 42 3 15 20 43 37 63
25 28 38 35 69 35 40 0 50 11 50 54 0 13 11 35 25 50 26 28 24 52 -5 61 -20 6
-79 -19 -92 -39 -5 -8 -8 -7 -8 2 0 7 11 24 25 38 14 14 25 29 25 34 0 5 15
10 33 12 27 3 35 -2 53 -30 12 -18 30 -39 40 -47z m473 69 c4 3 13 1 21 -5 11
-6 4 -9 -24 -9 -34 0 -37 2 -25 16 8 10 15 12 17 5 2 -6 7 -9 11 -7z m435 -65
c14 -35 20 -40 40 -35 19 5 31 -4 72 -56 68 -87 73 -97 73 -148 l-1 -45 -10
37 c-11 42 -28 52 -54 34 -13 -10 -18 -29 -20 -77 -2 -62 -9 -107 -17 -116 -2
-2 -4 50 -3 116 1 99 -2 123 -15 137 -13 13 -21 14 -38 5 -17 -9 -21 -21 -22
-59 -1 -72 -19 -17 -20 61 0 70 -24 127 -51 127 -24 0 -23 15 2 40 30 30 46
25 64 -21z m-1313 -382 c-10 -9 -11 -8 -5 6 3 10 9 15 12 12 3 -3 0 -11 -7
-18z m-14 -139 c-3 -8 -6 -5 -6 6 -1 11 2 17 5 13 3 -3 4 -12 1 -19z m-7 -78
c0 -33 -4 -60 -8 -60 -5 0 -8 21 -6 48 3 68 3 72 9 72 3 0 5 -27 5 -60z m1356
-127 c-3 -47 -3 -48 -42 -53 -21 -3 -45 -10 -53 -14 -8 -5 -2 11 12 35 19 31
34 45 52 47 18 2 25 8 21 18 -3 8 -1 14 4 14 5 0 8 -21 6 -47z m-1402 -18 c-6
-16 -24 -21 -24 -7 0 11 11 22 21 22 5 0 6 -7 3 -15z m-96 -149 c19 -90 24
-153 12 -136 -23 31 -90 174 -90 191 0 15 4 16 34 7 30 -9 34 -16 44 -62z
m1237 -613 c-2 -10 -4 -26 -4 -37 -1 -15 -4 -16 -16 -6 -20 16 -19 30 3 46 22
17 21 17 17 -3z m-885 -352 c0 -18 -14 -20 -26 -3 -19 25 -17 34 6 22 11 -6
20 -14 20 -19z m340 -21 c13 -8 13 -11 0 -24 -18 -19 -46 -5 -37 18 7 18 16
20 37 6z m-235 -24 c0 0 8 -11 18 -22 23 -28 14 -76 -12 -66 -41 17 -61 39
-57 63 3 13 5 28 5 32 1 6 46 0 46 -7z m988 -85 c3 -13 1 -18 -9 -14 -7 2 -10
11 -7 19 7 19 10 18 16 -5z m-6 -53 c-3 -8 -6 -5 -6 6 -1 11 2 17 5 13 3 -3 4
-12 1 -19z"/>
<path d="M844 1415 c-8 -30 8 -47 41 -43 15 2 20 11 20 33 0 25 -4 31 -27 33
-22 3 -29 -2 -34 -23z"/>
<path d="M1189 1401 c-20 -16 -22 -21 -9 -35 32 -40 73 -42 83 -5 15 55 -28
78 -74 40z"/>
<path d="M1695 816 c-27 -19 -26 -61 1 -87 32 -30 60 -22 57 16 -4 50 -6 54
-23 70 -14 13 -19 13 -35 1z"/>
</g>
</svg>
